<svg width="26" height="23" viewBox="0 0 26 23" fill="none" xmlns="http://www.w3.org/2000/svg">
<path d="M7.42102 10.4827C7.72824 10.4827 7.99311 10.3839 8.21563 10.1865C8.43815 9.9891 8.54942 9.75098 8.54942 9.47216C8.54942 9.19332 8.44067 8.95292 8.22317 8.75095C8.00564 8.54898 7.74328 8.44799 7.43609 8.44799C7.12888 8.44799 6.86401 8.5467 6.64148 8.74411C6.41896 8.94154 6.3077 9.17966 6.3077 9.45848C6.3077 9.73732 6.41645 9.97773 6.63395 10.1797C6.85147 10.3817 7.11383 10.4827 7.42102 10.4827ZM12.9925 10.4827C13.2997 10.4827 13.5645 10.3839 13.7871 10.1865C14.0096 9.9891 14.1209 9.75098 14.1209 9.47216C14.1209 9.19332 14.0121 8.95292 13.7946 8.75095C13.5771 8.54898 13.3147 8.44799 13.0075 8.44799C12.7003 8.44799 12.4355 8.5467 12.2129 8.74411C11.9904 8.94154 11.8791 9.17966 11.8791 9.45848C11.8791 9.73732 11.9879 9.97773 12.2054 10.1797C12.4229 10.3817 12.6853 10.4827 12.9925 10.4827ZM18.5639 10.4827C18.8711 10.4827 19.136 10.3839 19.3585 10.1865C19.581 9.9891 19.6923 9.75098 19.6923 9.47216C19.6923 9.19332 19.5836 8.95292 19.3661 8.75095C19.1485 8.54898 18.8862 8.44799 18.579 8.44799C18.2718 8.44799 18.0069 8.5467 17.7844 8.74411C17.5618 8.94154 17.4506 9.17966 17.4506 9.45848C17.4506 9.73732 17.5593 9.97773 17.7768 10.1797C17.9944 10.3817 18.2567 10.4827 18.5639 10.4827ZM0 23V2.08458C0 1.50093 0.222024 1.00758 0.666073 0.604551C1.11012 0.201517 1.65367 0 2.29672 0H23.7033C24.3463 0 24.8899 0.201517 25.3339 0.604551C25.778 1.00758 26 1.50093 26 2.08458V16.8461C26 17.4297 25.778 17.9231 25.3339 18.3261C24.8899 18.7291 24.3463 18.9306 23.7033 18.9306H4.48351L0 23ZM3.7143 17.2451H23.7033C23.8132 17.2451 23.9139 17.2035 24.0055 17.1204C24.0971 17.0373 24.1429 16.9458 24.1429 16.8461V2.08458C24.1429 1.98483 24.0971 1.89338 24.0055 1.81025C23.9139 1.72714 23.8132 1.68558 23.7033 1.68558H2.29672C2.18682 1.68558 2.08606 1.72714 1.99447 1.81025C1.9029 1.89338 1.85711 1.98483 1.85711 2.08458V18.9432L3.7143 17.2451Z" fill="black"/>
</svg>
