<svg width="11" height="10" viewBox="0 0 11 10" fill="none" xmlns="http://www.w3.org/2000/svg">
<path d="M8.60589 1.21248C8.78197 1.04484 9.01629 0.952167 9.25941 0.954006C9.50252 0.955846 9.73542 1.05206 9.90894 1.22234C10.0825 1.39263 10.1831 1.62366 10.1895 1.8667C10.1959 2.10974 10.1077 2.34577 9.94339 2.52498L4.95589 8.76248C4.87012 8.85486 4.76662 8.92899 4.65155 8.98044C4.53649 9.0319 4.41222 9.05962 4.2862 9.06195C4.16017 9.06429 4.03497 9.04118 3.91808 8.99402C3.80119 8.94686 3.69501 8.87662 3.60589 8.78748L0.298386 5.47998C0.206277 5.39416 0.132399 5.29066 0.0811593 5.17566C0.0299194 5.06066 0.00236688 4.93652 0.0001459 4.81064C-0.00207508 4.68476 0.021081 4.55972 0.0682323 4.44299C0.115384 4.32625 0.185564 4.22021 0.274588 4.13119C0.363611 4.04216 0.469653 3.97198 0.586389 3.92483C0.703124 3.87768 0.82816 3.85452 0.954039 3.85674C1.07992 3.85896 1.20406 3.88652 1.31906 3.93776C1.43406 3.989 1.53756 4.06287 1.62339 4.15498L4.24089 6.77123L8.58214 1.23998C8.58995 1.23036 8.59705 1.22118 8.60589 1.21248Z" fill="white"/>
</svg>
