<svg width="20" height="4" viewBox="0 0 20 4" fill="none" xmlns="http://www.w3.org/2000/svg">
<path d="M20 2.00815C20 2.5604 19.8024 3.03043 19.4073 3.41826C19.0122 3.80609 18.5372 4 17.9823 4C17.4275 4 16.9552 3.80337 16.5656 3.4101C16.1759 3.01684 15.9811 2.54409 15.9811 1.99185C15.9811 1.4396 16.1786 0.96957 16.5738 0.581742C16.9689 0.193914 17.4439 9.39726e-08 17.9987 9.39726e-08C18.5536 9.39726e-08 19.0259 0.196632 19.4155 0.589896C19.8052 0.98316 20 1.45591 20 2.00815ZM12.0095 2.00815C12.0095 2.5604 11.8119 3.03043 11.4168 3.41826C11.0217 3.80609 10.5467 4 9.99181 4C9.43695 4 8.96468 3.80337 8.57501 3.4101C8.18534 3.01684 7.99051 2.54409 7.99051 1.99185C7.99051 1.4396 8.18807 0.96957 8.5832 0.581742C8.97833 0.193914 9.45333 9.39726e-08 10.0082 9.39726e-08C10.5631 9.39726e-08 11.0353 0.196632 11.425 0.589896C11.8147 0.98316 12.0095 1.45591 12.0095 2.00815ZM4.01894 2.00815C4.01894 2.5604 3.82138 3.03043 3.42625 3.41826C3.03112 3.80609 2.55612 4 2.00126 4C1.4464 4 0.974132 3.80337 0.584464 3.4101C0.194821 3.01684 0 2.54409 0 1.99185C0 1.4396 0.197565 0.96957 0.592695 0.581742C0.987825 0.193914 1.46282 9.39726e-08 2.01768 9.39726e-08C2.57255 9.39726e-08 3.0448 0.196632 3.43444 0.589896C3.82411 0.98316 4.01894 1.45591 4.01894 2.00815Z" fill="black"/>
</svg>
