<svg width="30" height="19" viewBox="0 0 30 19" fill="none" xmlns="http://www.w3.org/2000/svg">
<path d="M14.511 8.90945C15.0301 8.33686 15.4133 7.70485 15.6604 7.0134C15.9076 6.32194 16.0312 5.60966 16.0312 4.87658C16.0312 4.15125 15.9076 3.44648 15.6604 2.76226C15.4133 2.07802 15.0301 1.43849 14.511 0.843683C14.6952 0.799243 14.868 0.771468 15.0292 0.760358C15.1905 0.749248 15.3632 0.743693 15.5475 0.743693C16.7612 0.700964 17.7919 1.08426 18.6397 1.89358C19.4875 2.70288 19.9114 3.69721 19.9114 4.87658C19.9114 6.05593 19.4875 7.05027 18.6397 7.85959C17.7919 8.66891 16.7612 9.05219 15.5475 9.00944C15.3632 9.00944 15.1847 9.00388 15.012 8.99277C14.8392 8.98166 14.6722 8.95389 14.511 8.90945ZM21.0064 18.0957V15.9011C21.0064 15.0632 20.8186 14.2828 20.443 13.56C20.0674 12.8372 19.5057 12.2408 18.758 11.7708C20.2091 12.0665 21.5933 12.4976 22.9106 13.0642C24.228 13.6308 24.8866 14.5764 24.8866 15.9011V18.0957H21.0064ZM25.3012 10.6862V7.88648H22.399V6.15339H25.3012V3.35367H27.0978V6.15339H30V7.88648H27.0978V10.6862H25.3012ZM9.25938 9.00944C8.06742 9.00944 7.0554 8.6081 6.22332 7.80542C5.39126 7.00273 4.97523 6.02645 4.97523 4.87658C4.97523 3.7267 5.39126 2.75042 6.22332 1.94774C7.0554 1.14504 8.06742 0.743693 9.25938 0.743693C10.4514 0.743693 11.4634 1.14504 12.2954 1.94774C13.1275 2.75042 13.5436 3.7267 13.5436 4.87658C13.5436 6.02645 13.1275 7.00273 12.2954 7.80542C11.4634 8.6081 10.4514 9.00944 9.25938 9.00944ZM0 18.0957V15.7985C0 15.3366 0.126235 14.9074 0.378705 14.5111C0.631197 14.1149 0.984231 13.7783 1.43781 13.5014C2.61958 12.7886 3.87711 12.2652 5.21038 11.931C6.54367 11.5969 7.88803 11.4298 9.24345 11.4298C10.5989 11.4298 11.937 11.608 13.2579 11.9643C14.5788 12.3207 15.8531 12.833 17.081 13.5014C17.5115 13.7783 17.8588 14.1149 18.1228 14.5111C18.3868 14.9074 18.5188 15.3366 18.5188 15.7985V18.0957H0ZM9.24228 7.27634C9.92165 7.27634 10.5089 7.04298 11.0042 6.57625C11.4994 6.10954 11.747 5.54848 11.747 4.89308C11.747 4.2377 11.4994 3.67115 11.0042 3.19342C10.5089 2.71569 9.92165 2.47682 9.24228 2.47682C8.56288 2.47682 7.98129 2.71569 7.49749 3.19342C7.01368 3.67115 6.77177 4.2377 6.77177 4.89308C6.77177 5.54848 7.01368 6.10954 7.49749 6.57625C7.98129 7.04298 8.56288 7.27634 9.24228 7.27634ZM1.79654 16.3626H16.7222V15.7985C16.7222 15.638 16.67 15.4877 16.5654 15.3474C16.4609 15.2072 16.3156 15.0755 16.1296 14.9524C15.0771 14.4089 13.9724 13.9748 12.8156 13.65C11.6587 13.3253 10.4676 13.1629 9.24211 13.1629C8.01668 13.1629 6.82553 13.3197 5.66865 13.6333C4.51179 13.947 3.41865 14.3867 2.38921 14.9524C2.20317 15.0755 2.05789 15.2072 1.95336 15.3474C1.84882 15.4877 1.79654 15.638 1.79654 15.7985V16.3626Z" fill="black"/>
</svg>
